<svg xmlns="http://www.w3.org/2000/svg" xmlns:xlink="http://www.w3.org/1999/xlink" width="225.026" height="35.615" viewBox="0 0 225.026 35.615"><link xmlns="" type="text/css" rel="stylesheet" id="dark-mode-custom-link"/><link xmlns="" type="text/css" rel="stylesheet" id="dark-mode-general-link"/><style xmlns="" lang="en" type="text/css" id="dark-mode-custom-style"/><style xmlns="" lang="en" type="text/css" id="dark-mode-native-style"/><style xmlns="" lang="en" type="text/css" id="dark-mode-native-sheet"/>
  <defs>
    <linearGradient id="linear-gradient" x1="-4.079" y1="1.349" x2="3.506" y2="-0.056" gradientUnits="objectBoundingBox">
      <stop offset="0" stop-color="#fff178"/>
      <stop offset="0.242" stop-color="#ffcb38"/>
      <stop offset="0.305" stop-color="#ffdb53"/>
      <stop offset="0.37" stop-color="#ffe767"/>
      <stop offset="0.435" stop-color="#ffee73"/>
      <stop offset="0.498" stop-color="#fff178"/>
      <stop offset="0.605" stop-color="#f4c649"/>
      <stop offset="0.76" stop-color="#e48200"/>
      <stop offset="1" stop-color="#fff178"/>
    </linearGradient>
    <linearGradient id="linear-gradient-2" x1="-5.272" y1="1.664" x2="1.698" y2="0.259" xlink:href="#linear-gradient"/>
    <linearGradient id="linear-gradient-3" x1="-6.138" y1="1.856" x2="0.597" y2="0.496" xlink:href="#linear-gradient"/>
    <linearGradient id="linear-gradient-4" x1="-17.967" y1="1.5" x2="7.982" y2="0.095" xlink:href="#linear-gradient"/>
  </defs>
  <g id="Group_371" data-name="Group 371" transform="translate(-527.446 -210.248)">
    <path id="Path_780" data-name="Path 780" d="M557.084,211.1a3.733,3.733,0,0,0-3.428,2.253l-9.331,21.6-9.115-21.4a4.042,4.042,0,1,0-7.43,3.185l10.707,24.819a6.044,6.044,0,0,0,11.1.007l10.93-25.25a3.734,3.734,0,0,0-3.428-5.218Z" transform="translate(0 0.05)" fill="#0a513c"/>
    <path id="Path_781" data-name="Path 781" d="M585.908,238.453H570.74v-7.469h12.466a3.211,3.211,0,1,0,0-6.423H570.74v-6.987h14.54a3.215,3.215,0,0,0,3.211-3.212v-.193a3.215,3.215,0,0,0-3.211-3.211H562.629V245.07h23.279a3.215,3.215,0,0,0,3.211-3.211v-.193A3.215,3.215,0,0,0,585.908,238.453Z" transform="translate(2.057 0.042)" fill="#0a513c"/>
    <path id="Path_782" data-name="Path 782" d="M619.371,227.343a3.746,3.746,0,0,0-3.742,3.742V237.3a12.589,12.589,0,0,1-5.905,1.378,11.381,11.381,0,0,1-5.584-1.354,9.761,9.761,0,0,1-3.818-3.769,11.815,11.815,0,0,1,0-11.069,9.551,9.551,0,0,1,3.838-3.744,11.8,11.8,0,0,1,5.658-1.33,11.329,11.329,0,0,1,6.543,1.981,3.629,3.629,0,0,0,4.543-.282,3.571,3.571,0,0,0,1.144-2.933,3.647,3.647,0,0,0-1.646-2.76,17.2,17.2,0,0,0-2.848-1.5,21.192,21.192,0,0,0-8.122-1.508,20.377,20.377,0,0,0-9.632,2.263,16.855,16.855,0,0,0-6.7,6.287,18.315,18.315,0,0,0,0,18.17,16.943,16.943,0,0,0,6.651,6.285,20,20,0,0,0,9.536,2.264,25.026,25.026,0,0,0,7.335-1.117,20.672,20.672,0,0,0,6.421-3.211l.069-.052V231.085A3.746,3.746,0,0,0,619.371,227.343Z" transform="translate(3.697 0.01)" fill="#0a513c"/>
    <path id="Path_783" data-name="Path 783" d="M645.46,226.208l8.81-9.477a3.532,3.532,0,0,0-2.587-5.936,3.549,3.549,0,0,0-2.564,1.1L635.7,226.049V215.024a4.229,4.229,0,0,0-8.457,0v26a4.229,4.229,0,0,0,8.457,0v-4.516l4.168-4.345,9.483,11.641a3.932,3.932,0,0,0,6.133-4.923Z" transform="translate(5.834 0.032)" fill="url(#linear-gradient)"/>
    <path id="Path_784" data-name="Path 784" d="M702.528,210.8a4.209,4.209,0,0,0-4.2,4.2v15.677l-14.859-18.147a4.732,4.732,0,0,0-8.392,3v25.521a4.2,4.2,0,0,0,8.408,0V225.369L698.4,243.534a4.7,4.7,0,0,0,8.334-2.983V215A4.209,4.209,0,0,0,702.528,210.8Z" transform="translate(8.629 0.032)" fill="url(#linear-gradient-2)"/>
    <path id="Path_785" data-name="Path 785" d="M737.939,227.18a3.919,3.919,0,0,0-3.914,3.914v6.11a12.444,12.444,0,0,1-5.733,1.311,11.214,11.214,0,0,1-5.5-1.332,9.589,9.589,0,0,1-3.751-3.7,11.644,11.644,0,0,1,0-10.9,9.391,9.391,0,0,1,3.771-3.678,11.628,11.628,0,0,1,5.577-1.309,11.151,11.151,0,0,1,6.444,1.951,3.9,3.9,0,0,0,2.216.694,3.751,3.751,0,0,0,3.741-4.064,3.815,3.815,0,0,0-1.723-2.891,17.222,17.222,0,0,0-2.877-1.515A21.344,21.344,0,0,0,728,210.248a20.558,20.558,0,0,0-9.712,2.283,17.039,17.039,0,0,0-6.768,6.351,18.487,18.487,0,0,0,0,18.347,17.12,17.12,0,0,0,6.718,6.35,20.168,20.168,0,0,0,9.617,2.284,25.191,25.191,0,0,0,7.386-1.125,20.824,20.824,0,0,0,6.473-3.238l.138-.1v-10.3A3.919,3.919,0,0,0,737.939,227.18Z" transform="translate(10.618)" fill="url(#linear-gradient-3)"/>
    <path id="Path_786" data-name="Path 786" d="M664.816,210.8a4.258,4.258,0,0,0-4.253,4.253V241a4.252,4.252,0,1,0,8.5,0V215.048A4.257,4.257,0,0,0,664.816,210.8Z" transform="translate(7.781 0.032)" fill="url(#linear-gradient-4)"/>
  </g>
</svg>