<?xml version="1.0" encoding="UTF-8"?>
<!DOCTYPE svg PUBLIC "-//W3C//DTD SVG 1.1//EN" "http://www.w3.org/Graphics/SVG/1.1/DTD/svg11.dtd">
<svg xmlns="http://www.w3.org/2000/svg" version="1.1" width="200px" height="200px" style="shape-rendering:geometricPrecision; text-rendering:geometricPrecision; image-rendering:optimizeQuality; fill-rule:evenodd; clip-rule:evenodd" xmlns:xlink="http://www.w3.org/1999/xlink">
<g><path style="opacity:0.078" fill="#8f7428" d="M 96.5,34.5 C 97.4972,54.6598 97.8305,74.9931 97.5,95.5C 92.9677,95.8182 88.6344,95.4849 84.5,94.5C 88.5,94.5 92.5,94.5 96.5,94.5C 96.5,74.5 96.5,54.5 96.5,34.5 Z"/></g>
<g><path style="opacity:1" fill="#ebae08" d="M 96.5,34.5 C 96.5,54.5 96.5,74.5 96.5,94.5C 92.5,94.5 88.5,94.5 84.5,94.5C 83.5029,74.6736 83.1695,54.6736 83.5,34.5C 87.8333,34.5 92.1667,34.5 96.5,34.5 Z"/></g>
<g><path style="opacity:1" fill="#e1a709" d="M 58.5,34.5 C 63.1667,34.5 67.8333,34.5 72.5,34.5C 72.5,54.5 72.5,74.5 72.5,94.5C 67.9356,95.4743 63.4356,95.4743 59,94.5C 58.5,74.5028 58.3334,54.5028 58.5,34.5 Z"/></g>
<g><path style="opacity:1" fill="#b18819" d="M 36.5,52.5 C 27.7361,50.8929 19.0694,51.2263 10.5,53.5C 19.1304,49.329 27.797,48.9956 36.5,52.5 Z"/></g>
<g><path style="opacity:1" fill="#ce9b15" d="M 10.5,53.5 C 10.0766,54.2646 9.74325,55.0979 9.5,56C 10.7131,57.6303 11.5464,59.4636 12,61.5C 13.7755,60.4639 15.6089,60.4639 17.5,61.5C 15.604,62.4805 13.604,63.4805 11.5,64.5C 9.21145,62.0981 7.54478,59.2647 6.5,56C 7.35574,54.4053 8.68907,53.572 10.5,53.5 Z"/></g>
<g><path style="opacity:1" fill="#e6aa0b" d="M 36.5,52.5 C 41.0898,53.9213 44.2565,56.9213 46,61.5C 47.5168,72.4558 47.8502,83.4558 47,94.5C 42.9341,95.4637 38.7675,95.797 34.5,95.5C 34.6567,94.1266 34.49,92.7932 34,91.5C 23.6864,98.6973 14.3531,97.6973 6,88.5C 2.69292,77.2905 6.85959,70.7905 18.5,69C 23.5329,68.829 28.5329,68.329 33.5,67.5C 32.7469,65.2466 31.4136,63.4133 29.5,62C 25.5138,61.5012 21.5138,61.3345 17.5,61.5C 15.6089,60.4639 13.7755,60.4639 12,61.5C 11.5464,59.4636 10.7131,57.6303 9.5,56C 9.74325,55.0979 10.0766,54.2646 10.5,53.5C 19.0694,51.2263 27.7361,50.8929 36.5,52.5 Z M 21.5,86.5 C 20.7095,85.5987 19.7095,84.9321 18.5,84.5C 16.9678,81.7167 17.6345,79.55 20.5,78C 24.8206,77.501 29.1539,77.3343 33.5,77.5C 32.9179,84.81 28.9179,87.81 21.5,86.5 Z"/></g>
<g><path style="opacity:0.902" fill="#8c6f20" d="M 18.5,84.5 C 19.7095,84.9321 20.7095,85.5987 21.5,86.5C 19.8212,86.7148 18.8212,86.0481 18.5,84.5 Z"/></g>
<g><path style="opacity:0.156" fill="#fdfdfc" d="M 47.5,150.5 C 47.8276,139.986 47.4942,129.653 46.5,119.5C 46.8337,116.509 45.8337,114.176 43.5,112.5C 41.4731,107.65 37.8065,104.816 32.5,104C 27.6478,103.185 22.9811,103.352 18.5,104.5C 15.0836,104.528 12.0836,105.528 9.5,107.5C 8.00475,107.415 7.00475,108.081 6.5,109.5C 7.84661,112.193 9.17994,114.86 10.5,117.5C 11.6774,119.784 13.3441,120.118 15.5,118.5C 16.0968,119.139 16.9302,119.472 18,119.5C 21.1514,118.907 24.318,118.407 27.5,118C 25.9751,116.991 24.3084,116.491 22.5,116.5C 23.9187,115.549 25.5853,115.216 27.5,115.5C 29.4261,116.486 31.4261,117.486 33.5,118.5C 33.5,119.833 33.5,121.167 33.5,122.5C 27.4908,122.334 21.4908,122.501 15.5,123C 13.5087,123.374 11.842,124.207 10.5,125.5C 7.54795,126.359 5.71461,128.359 5,131.5C 4.20419,134.039 4.37086,136.372 5.5,138.5C 5.22911,140.38 5.89578,141.713 7.5,142.5C 8.26722,145.735 10.2672,147.901 13.5,149C 18.4012,150.325 23.4012,150.825 28.5,150.5C 21.7949,152.108 15.1283,151.608 8.5,149C 3.4339,145.999 1.10057,141.499 1.5,135.5C 1.08841,128.48 4.08841,123.647 10.5,121C 5.48079,117.46 3.31413,112.627 4,106.5C 10.2413,102.021 17.2413,100.021 25,100.5C 37.1098,99.2091 45.1098,104.209 49,115.5C 49.1667,121.333 49.3333,127.167 49.5,133C 49.4958,139.207 48.8291,145.04 47.5,150.5 Z M 22.5,116.5 C 24.3084,116.491 25.9751,116.991 27.5,118C 24.318,118.407 21.1514,118.907 18,119.5C 16.9302,119.472 16.0968,119.139 15.5,118.5C 18.0673,118.279 20.4006,117.612 22.5,116.5 Z M 24.5,132.5 C 31.9957,132.425 31.9957,133.758 24.5,136.5C 20.5008,135.168 20.5008,133.835 24.5,132.5 Z"/></g>
<g><path style="opacity:0.142" fill="#fcfcfb" d="M 70.5,100.5 C 75.5111,100.334 80.5111,100.501 85.5,101C 86.7659,101.309 87.9326,101.809 89,102.5C 95,99.8333 101,99.8333 107,102.5C 107.667,118.167 107.667,133.833 107,149.5C 104.718,159.449 98.551,165.283 88.5,167C 76.9611,168.931 66.1278,167.098 56,161.5C 55.3935,156.072 56.8935,151.239 60.5,147C 61.8333,146.667 63.1667,146.333 64.5,146C 54.5773,139.974 50.7439,131.14 53,119.5C 55.2506,109.753 61.0839,103.42 70.5,100.5 Z M 77.5,117.5 C 83.2637,117.041 86.9304,119.541 88.5,125C 87.4777,129.189 84.811,131.356 80.5,131.5C 74.8538,131.027 72.3538,128.027 73,122.5C 74.3657,120.638 75.8657,118.972 77.5,117.5 Z M 80.5,148.5 C 80.8333,148.5 81.1667,148.5 81.5,148.5C 82.8734,148.343 84.2068,148.51 85.5,149C 80.5271,150.939 75.5271,150.939 70.5,149C 74.0077,149.24 77.341,149.073 80.5,148.5 Z"/></g>
<g><path style="opacity:0.151" fill="#fdfdfd" d="M 199.5,116.5 C 199.5,122.833 199.5,129.167 199.5,135.5C 195.924,143.409 189.924,148.409 181.5,150.5C 166.024,154.679 154.524,149.679 147,135.5C 145.349,130.187 145.182,124.854 146.5,119.5C 141.107,117.347 136.94,118.68 134,123.5C 133.292,132.836 132.125,141.836 130.5,150.5C 128.359,151.163 126.025,151.497 123.5,151.5C 120.094,151.704 116.928,151.038 114,149.5C 113.176,133.592 113.343,117.759 114.5,102C 120.597,99.8431 126.597,100.01 132.5,102.5C 137.006,100.616 141.673,100.116 146.5,101C 147.303,105.414 147.803,109.914 148,114.5C 155.423,102.248 166.256,97.7477 180.5,101C 189.442,103.121 195.775,108.287 199.5,116.5 Z M 170.5,117.5 C 178.642,117.481 181.808,121.481 180,129.5C 175.333,136.167 170.667,136.167 166,129.5C 164.474,124.239 165.974,120.239 170.5,117.5 Z"/></g>
<g><path style="opacity:0.961" fill="#7d947c" d="M 18.5,104.5 C 22.9811,103.352 27.6478,103.185 32.5,104C 37.8065,104.816 41.4731,107.65 43.5,112.5C 36.7155,105.462 28.3822,102.795 18.5,104.5 Z"/></g>
<g><path style="opacity:0.973" fill="#7c9580" d="M 167.5,104.5 C 169.304,103.838 171.304,103.505 173.5,103.5C 176.814,103.343 179.814,104.009 182.5,105.5C 177.537,104.746 172.537,104.413 167.5,104.5 Z"/></g>
<g><path style="opacity:0.992" fill="#759179" d="M 72.5,104.5 C 75.9758,103.357 79.6425,103.19 83.5,104C 86.0254,104.424 88.0254,105.59 89.5,107.5C 84.1353,104.994 78.4686,103.994 72.5,104.5 Z"/></g>
<g><path style="opacity:1" fill="#1d5523" d="M 167.5,104.5 C 172.537,104.413 177.537,104.746 182.5,105.5C 184.153,105.66 185.486,106.326 186.5,107.5C 188.461,109.963 190.628,112.297 193,114.5C 194.782,117.632 195.948,120.965 196.5,124.5C 195.75,135.902 190.084,143.569 179.5,147.5C 174.13,147.608 168.797,147.275 163.5,146.5C 163.158,145.662 162.492,145.328 161.5,145.5C 158.526,142.862 155.526,140.195 152.5,137.5C 151.662,137.158 151.328,136.492 151.5,135.5C 150.916,132.33 150.25,129.163 149.5,126C 150.25,122.837 150.916,119.67 151.5,116.5C 151.328,115.508 151.662,114.842 152.5,114.5C 155.526,111.805 158.526,109.138 161.5,106.5C 163.102,104.926 165.102,104.259 167.5,104.5 Z M 170.5,117.5 C 165.974,120.239 164.474,124.239 166,129.5C 170.667,136.167 175.333,136.167 180,129.5C 181.808,121.481 178.642,117.481 170.5,117.5 Z"/></g>
<g><path style="opacity:1" fill="#205625" d="M 18.5,104.5 C 28.3822,102.795 36.7155,105.462 43.5,112.5C 43.8923,114.179 44.3923,115.846 45,117.5C 45.4998,127.494 45.6665,137.494 45.5,147.5C 42.1667,147.5 38.8333,147.5 35.5,147.5C 34.8333,147.5 34.5,147.167 34.5,146.5C 36.1368,144.876 35.8034,143.876 33.5,143.5C 24.593,149.084 15.9264,148.75 7.5,142.5C 5.89578,141.713 5.22911,140.38 5.5,138.5C 5.22554,133.388 6.89221,129.055 10.5,125.5C 11.842,124.207 13.5087,123.374 15.5,123C 21.4908,122.501 27.4908,122.334 33.5,122.5C 33.5,121.167 33.5,119.833 33.5,118.5C 32.6466,115.482 30.6466,113.649 27.5,113C 22.4372,112.248 17.7706,113.081 13.5,115.5C 12.8333,115.5 12.1667,115.5 11.5,115.5C 9.02304,113.233 8.35637,110.567 9.5,107.5C 12.0836,105.528 15.0836,104.528 18.5,104.5 Z M 24.5,132.5 C 20.5008,133.835 20.5008,135.168 24.5,136.5C 31.9957,133.758 31.9957,132.425 24.5,132.5 Z"/></g>
<g><path style="opacity:1" fill="#1e5524" d="M 72.5,104.5 C 78.4686,103.994 84.1353,104.994 89.5,107.5C 91.8795,108.567 92.8795,107.567 92.5,104.5C 96.9707,103.911 100.971,104.577 104.5,106.5C 103.669,119.994 103.169,133.661 103,147.5C 101.156,153.571 97.6559,158.237 92.5,161.5C 81.2998,164.428 70.2998,163.761 59.5,159.5C 58.4265,158.749 58.2599,157.749 59,156.5C 60.1889,154.767 61.3556,153.1 62.5,151.5C 70.0821,154.47 77.7488,155.137 85.5,153.5C 87.1423,152.197 88.8089,150.864 90.5,149.5C 92.1628,147.562 92.8294,145.228 92.5,142.5C 92.5299,141.503 92.0299,140.836 91,140.5C 86.5655,143.256 81.7321,144.923 76.5,145.5C 67.9016,143.901 61.5683,139.234 57.5,131.5C 56.4406,125.971 56.6073,120.305 58,114.5C 58.3826,113.944 58.8826,113.611 59.5,113.5C 61.6298,111.873 63.6298,110.04 65.5,108C 67.9252,106.787 70.2585,105.621 72.5,104.5 Z M 77.5,117.5 C 75.8657,118.972 74.3657,120.638 73,122.5C 72.3538,128.027 74.8538,131.027 80.5,131.5C 84.811,131.356 87.4777,129.189 88.5,125C 86.9304,119.541 83.2637,117.041 77.5,117.5 Z"/></g>
<g><path style="opacity:1" fill="#1d5524" d="M 144.5,105.5 C 143.523,108.287 143.19,111.287 143.5,114.5C 137.389,113.095 133.055,115.095 130.5,120.5C 129.698,121.952 129.198,123.618 129,125.5C 128.5,132.826 128.334,140.159 128.5,147.5C 124.833,147.5 121.167,147.5 117.5,147.5C 117.184,133.088 117.518,118.755 118.5,104.5C 122.649,103.92 126.316,104.586 129.5,106.5C 128.596,107.209 128.263,108.209 128.5,109.5C 131.326,109.002 133.66,107.669 135.5,105.5C 137.201,104.266 139.201,103.599 141.5,103.5C 143.03,103.64 144.03,104.307 144.5,105.5 Z"/></g>
<g><path style="opacity:1" fill="#939f75" d="M 135.5,105.5 C 133.66,107.669 131.326,109.002 128.5,109.5C 128.263,108.209 128.596,107.209 129.5,106.5C 130.117,106.611 130.617,106.944 131,107.5C 132.33,106.418 133.83,105.751 135.5,105.5 Z"/></g>
<g><path style="opacity:1" fill="#b89511" d="M 144.5,105.5 C 144.5,108.833 144.5,112.167 144.5,115.5C 138.786,114.451 134.12,116.117 130.5,120.5C 133.055,115.095 137.389,113.095 143.5,114.5C 143.19,111.287 143.523,108.287 144.5,105.5 Z"/></g>
<g><path style="opacity:0.965" fill="#749177" d="M 161.5,106.5 C 158.526,109.138 155.526,111.805 152.5,114.5C 154.233,110.435 157.233,107.768 161.5,106.5 Z"/></g>
<g><path style="opacity:0.855" fill="#919a6b" d="M 186.5,107.5 C 193.409,110.967 197.076,116.634 197.5,124.5C 197.167,124.5 196.833,124.5 196.5,124.5C 195.948,120.965 194.782,117.632 193,114.5C 190.628,112.297 188.461,109.963 186.5,107.5 Z"/></g>
<g><path style="opacity:1" fill="#739178" d="M 72.5,104.5 C 70.2585,105.621 67.9252,106.787 65.5,108C 63.6298,110.04 61.6298,111.873 59.5,113.5C 61.8987,107.794 66.232,104.794 72.5,104.5 Z"/></g>
<g><path style="opacity:0.98" fill="#88925b" d="M 9.5,107.5 C 8.35637,110.567 9.02304,113.233 11.5,115.5C 11.6716,116.492 11.3382,117.158 10.5,117.5C 9.17994,114.86 7.84661,112.193 6.5,109.5C 7.00475,108.081 8.00475,107.415 9.5,107.5 Z"/></g>
<g><path style="opacity:1" fill="#caa321" d="M 33.5,118.5 C 31.4261,117.486 29.4261,116.486 27.5,115.5C 24.2083,114.189 19.5416,114.189 13.5,115.5C 17.7706,113.081 22.4372,112.248 27.5,113C 30.6466,113.649 32.6466,115.482 33.5,118.5 Z"/></g>
<g><path style="opacity:1" fill="#9b8611" d="M 74.5,114.5 C 78.3112,113.355 82.3112,113.188 86.5,114C 87.056,114.383 87.3893,114.883 87.5,115.5C 83.2315,114.627 78.8982,114.294 74.5,114.5 Z"/></g>
<g><path style="opacity:1" fill="#85832b" d="M 178.5,114.5 C 182.365,115.706 184.365,118.373 184.5,122.5C 183.197,120.858 181.864,119.191 180.5,117.5C 179.833,116.5 179.167,115.5 178.5,114.5 Z"/></g>
<g><path style="opacity:0.021" fill="#fefffe" d="M 22.5,116.5 C 20.4006,117.612 18.0673,118.279 15.5,118.5C 17.4385,116.837 19.7718,116.171 22.5,116.5 Z"/></g>
<g><path style="opacity:1" fill="#807b16" d="M 74.5,114.5 C 73.1667,116.5 71.5,118.167 69.5,119.5C 70.1667,116.833 71.8333,115.167 74.5,114.5 Z"/></g>
<g><path style="opacity:0.218" fill="#fcfcfc" d="M 89.5,118.5 C 93.5244,129.658 89.5244,135.158 77.5,135C 73.9283,134.568 71.595,132.735 70.5,129.5C 69.471,121.196 73.1376,116.862 81.5,116.5C 84.4088,116.385 87.0754,117.051 89.5,118.5 Z M 77.5,117.5 C 75.8657,118.972 74.3657,120.638 73,122.5C 72.3538,128.027 74.8538,131.027 80.5,131.5C 84.811,131.356 87.4777,129.189 88.5,125C 86.9304,119.541 83.2637,117.041 77.5,117.5 Z"/></g>
<g><path style="opacity:0.929" fill="#f3bc2b" d="M 172.5,113.5 C 174.735,113.205 176.735,113.539 178.5,114.5C 179.167,115.5 179.833,116.5 180.5,117.5C 168.19,114.146 162.523,118.812 163.5,131.5C 162.388,129.401 161.721,127.067 161.5,124.5C 162.833,118.5 166.5,114.833 172.5,113.5 Z"/></g>
<g><path style="opacity:0.216" fill="#fdfdfd" d="M 180.5,117.5 C 181.864,119.191 183.197,120.858 184.5,122.5C 184.5,124.167 184.5,125.833 184.5,127.5C 181.471,137.507 175.138,140.173 165.5,135.5C 164.326,134.486 163.66,133.153 163.5,131.5C 162.523,118.812 168.19,114.146 180.5,117.5 Z M 170.5,117.5 C 165.974,120.239 164.474,124.239 166,129.5C 170.667,136.167 175.333,136.167 180,129.5C 181.808,121.481 178.642,117.481 170.5,117.5 Z"/></g>
<g><path style="opacity:0.867" fill="#f1b929" d="M 74.5,114.5 C 78.8982,114.294 83.2315,114.627 87.5,115.5C 88.5511,116.222 89.2178,117.222 89.5,118.5C 87.0754,117.051 84.4088,116.385 81.5,116.5C 73.1376,116.862 69.471,121.196 70.5,129.5C 69.0277,127.883 68.361,125.883 68.5,123.5C 68.5108,121.955 68.8442,120.622 69.5,119.5C 71.5,118.167 73.1667,116.5 74.5,114.5 Z"/></g>
<g><path style="opacity:0.286" fill="#f8bf28" d="M 27.5,115.5 C 25.5853,115.216 23.9187,115.549 22.5,116.5C 19.7718,116.171 17.4385,116.837 15.5,118.5C 13.3441,120.118 11.6774,119.784 10.5,117.5C 11.3382,117.158 11.6716,116.492 11.5,115.5C 12.1667,115.5 12.8333,115.5 13.5,115.5C 19.5416,114.189 24.2083,114.189 27.5,115.5 Z"/></g>
<g><path style="opacity:0.769" fill="#ebbb36" d="M 144.5,105.5 C 145.483,109.298 145.817,113.298 145.5,117.5C 139.41,116.137 134.91,118.137 132,123.5C 130.619,132.432 130.119,141.432 130.5,150.5C 126.486,150.666 122.486,150.499 118.5,150C 117.748,149.329 117.414,148.496 117.5,147.5C 121.167,147.5 124.833,147.5 128.5,147.5C 128.334,140.159 128.5,132.826 129,125.5C 129.198,123.618 129.698,121.952 130.5,120.5C 134.12,116.117 138.786,114.451 144.5,115.5C 144.5,112.167 144.5,108.833 144.5,105.5 Z"/></g>
<g><path style="opacity:0.867" fill="#899b86" d="M 151.5,116.5 C 150.916,119.67 150.25,122.837 149.5,126C 150.25,129.163 150.916,132.33 151.5,135.5C 147.5,129.167 147.5,122.833 151.5,116.5 Z"/></g>
<g><path style="opacity:1" fill="#7f7c15" d="M 172.5,113.5 C 166.5,114.833 162.833,118.5 161.5,124.5C 161.5,117.167 165.167,113.5 172.5,113.5 Z"/></g>
<g><path style="opacity:1" fill="#ab9327" d="M 43.5,112.5 C 45.8337,114.176 46.8337,116.509 46.5,119.5C 46.8269,129.015 46.4936,138.348 45.5,147.5C 45.6665,137.494 45.4998,127.494 45,117.5C 44.3923,115.846 43.8923,114.179 43.5,112.5 Z"/></g>
<g><path style="opacity:0.911" fill="#9da79e" d="M 118.5,104.5 C 117.518,118.755 117.184,133.088 117.5,147.5C 116.834,140.508 116.5,133.341 116.5,126C 116.503,118.467 117.169,111.301 118.5,104.5 Z"/></g>
<g><path style="opacity:0.961" fill="#738f77" d="M 10.5,125.5 C 6.89221,129.055 5.22554,133.388 5.5,138.5C 4.37086,136.372 4.20419,134.039 5,131.5C 5.71461,128.359 7.54795,126.359 10.5,125.5 Z"/></g>
<g><path style="opacity:0.932" fill="#f1b81d" d="M 33.5,131.5 C 30.2869,131.19 27.2869,131.523 24.5,132.5C 21.1884,132.149 18.855,133.482 17.5,136.5C 16.1142,134.387 16.4476,132.387 18.5,130.5C 21,130.167 23.5,129.833 26,129.5C 28.9294,129.525 31.4294,130.191 33.5,131.5 Z"/></g>
<g><path style="opacity:0.258" fill="#fcfbfa" d="M 33.5,131.5 C 33.7307,134.785 32.3974,137.285 29.5,139C 26.1667,139.667 22.8333,139.667 19.5,139C 18.6195,138.292 17.9528,137.458 17.5,136.5C 18.855,133.482 21.1884,132.149 24.5,132.5C 27.2869,131.523 30.2869,131.19 33.5,131.5 Z M 24.5,132.5 C 20.5008,133.835 20.5008,135.168 24.5,136.5C 31.9957,133.758 31.9957,132.425 24.5,132.5 Z"/></g>
<g><path style="opacity:1" fill="#57785a" d="M 184.5,127.5 C 184.957,132.421 182.957,135.921 178.5,138C 174.833,138.667 171.167,138.667 167.5,138C 166.244,137.583 165.577,136.75 165.5,135.5C 175.138,140.173 181.471,137.507 184.5,127.5 Z"/></g>
<g><path style="opacity:0.953" fill="#bca748" d="M 152.5,137.5 C 155.526,140.195 158.526,142.862 161.5,145.5C 160.508,145.328 159.842,145.662 159.5,146.5C 156.027,144.363 153.694,141.363 152.5,137.5 Z"/></g>
<g><path style="opacity:0.718" fill="#d5b33f" d="M 57.5,131.5 C 61.5683,139.234 67.9016,143.901 76.5,145.5C 75.1266,145.343 73.7932,145.51 72.5,146C 75.4781,146.696 78.4781,147.196 81.5,147.5C 81.5,147.833 81.5,148.167 81.5,148.5C 81.1667,148.5 80.8333,148.5 80.5,148.5C 68.5254,148.511 60.8588,142.844 57.5,131.5 Z"/></g>
<g><path style="opacity:0.71" fill="#f0b71a" d="M 92.5,142.5 C 92.1667,142.5 91.8333,142.5 91.5,142.5C 89.2432,146.046 85.9099,147.713 81.5,147.5C 78.4781,147.196 75.4781,146.696 72.5,146C 73.7932,145.51 75.1266,145.343 76.5,145.5C 81.7321,144.923 86.5655,143.256 91,140.5C 92.0299,140.836 92.5299,141.503 92.5,142.5 Z"/></g>
<g><path style="opacity:1" fill="#78947a" d="M 91.5,142.5 C 91.8333,142.5 92.1667,142.5 92.5,142.5C 92.8294,145.228 92.1628,147.562 90.5,149.5C 90.9926,147.194 91.3259,144.861 91.5,142.5 Z"/></g>
<g><path style="opacity:0.055" fill="#fdfdfd" d="M 34.5,146.5 C 34.5,147.167 34.8333,147.5 35.5,147.5C 35.5,148.5 35.5,149.5 35.5,150.5C 39.5,150.5 43.5,150.5 47.5,150.5C 41.3261,151.55 34.9927,151.55 28.5,150.5C 30.7278,149.623 32.7278,148.29 34.5,146.5 Z"/></g>
<g><path style="opacity:0.357" fill="#eeb927" d="M 196.5,124.5 C 196.833,124.5 197.167,124.5 197.5,124.5C 199.475,133.753 196.475,141.253 188.5,147C 186.075,148.213 183.741,149.379 181.5,150.5C 176.821,150.666 172.155,150.499 167.5,150C 164.401,149.613 161.734,148.446 159.5,146.5C 159.842,145.662 160.508,145.328 161.5,145.5C 162.492,145.328 163.158,145.662 163.5,146.5C 166.356,148.006 169.523,148.672 173,148.5C 175.361,148.496 177.527,148.163 179.5,147.5C 190.084,143.569 195.75,135.902 196.5,124.5 Z"/></g>
<g><path style="opacity:1" fill="#af920d" d="M 163.5,146.5 C 168.797,147.275 174.13,147.608 179.5,147.5C 177.527,148.163 175.361,148.496 173,148.5C 169.523,148.672 166.356,148.006 163.5,146.5 Z"/></g>
<g><path style="opacity:1" fill="#e3b225" d="M 7.5,142.5 C 15.9264,148.75 24.593,149.084 33.5,143.5C 35.8034,143.876 36.1368,144.876 34.5,146.5C 32.7278,148.29 30.7278,149.623 28.5,150.5C 23.4012,150.825 18.4012,150.325 13.5,149C 10.2672,147.901 8.26722,145.735 7.5,142.5 Z"/></g>
<g><path style="opacity:1" fill="#f9c340" d="M 46.5,119.5 C 47.4942,129.653 47.8276,139.986 47.5,150.5C 43.5,150.5 39.5,150.5 35.5,150.5C 35.5,149.5 35.5,148.5 35.5,147.5C 38.8333,147.5 42.1667,147.5 45.5,147.5C 46.4936,138.348 46.8269,129.015 46.5,119.5 Z"/></g>
<g><path style="opacity:1" fill="#7f9782" d="M 85.5,153.5 C 77.7488,155.137 70.0821,154.47 62.5,151.5C 62.3691,150.624 62.7025,149.957 63.5,149.5C 70.377,153.091 77.7103,154.424 85.5,153.5 Z"/></g>
<g><path style="opacity:0.657" fill="#e1b535" d="M 104.5,106.5 C 105.661,120.994 105.828,135.661 105,150.5C 103.442,156.543 99.9422,160.877 94.5,163.5C 95.6602,161.797 94.9935,161.131 92.5,161.5C 97.6559,158.237 101.156,153.571 103,147.5C 103.169,133.661 103.669,119.994 104.5,106.5 Z"/></g>
<g><path style="opacity:1" fill="#c49d16" d="M 59.5,159.5 C 70.2998,163.761 81.2998,164.428 92.5,161.5C 88.6114,163.868 84.2781,164.868 79.5,164.5C 74.1005,164.266 68.7672,163.6 63.5,162.5C 61.368,162.446 60.0347,161.446 59.5,159.5 Z"/></g>
<g><path style="opacity:0.702" fill="#fcc028" d="M 92.5,161.5 C 94.9935,161.131 95.6602,161.797 94.5,163.5C 86.1471,166.881 77.4804,167.381 68.5,165C 66.5087,164.626 64.842,163.793 63.5,162.5C 68.7672,163.6 74.1005,164.266 79.5,164.5C 84.2781,164.868 88.6114,163.868 92.5,161.5 Z"/></g>
</svg>
